<mxfile host="app.diagrams.net" agent="Mozilla/5.0 (X11; Ubuntu; Linux x86_64; rv:132.0) Gecko/20100101 Firefox/132.0" version="26.0.9">
  <diagram name="Page-1" id="fa_ygObk7ZJvS2VVlOgt">
    <mxGraphModel dx="1434" dy="747" grid="1" gridSize="10" guides="1" tooltips="1" connect="1" arrows="1" fold="1" page="1" pageScale="1" pageWidth="850" pageHeight="1100" math="0" shadow="0">
      <root>
        <mxCell id="0" />
        <mxCell id="1" parent="0" />
        <mxCell id="uBxwm77QS9etpodQzqcS-3" value="" style="edgeStyle=orthogonalEdgeStyle;rounded=0;orthogonalLoop=1;jettySize=auto;html=1;" edge="1" parent="1" source="uBxwm77QS9etpodQzqcS-1" target="uBxwm77QS9etpodQzqcS-2">
          <mxGeometry relative="1" as="geometry" />
        </mxCell>
        <mxCell id="uBxwm77QS9etpodQzqcS-1" value="START" style="ellipse;whiteSpace=wrap;html=1;" vertex="1" parent="1">
          <mxGeometry x="330" y="30" width="120" height="80" as="geometry" />
        </mxCell>
        <mxCell id="uBxwm77QS9etpodQzqcS-5" value="" style="edgeStyle=orthogonalEdgeStyle;rounded=0;orthogonalLoop=1;jettySize=auto;html=1;" edge="1" parent="1" target="uBxwm77QS9etpodQzqcS-4">
          <mxGeometry relative="1" as="geometry">
            <mxPoint x="390" y="400" as="sourcePoint" />
          </mxGeometry>
        </mxCell>
        <mxCell id="uBxwm77QS9etpodQzqcS-23" value="" style="edgeStyle=orthogonalEdgeStyle;rounded=0;orthogonalLoop=1;jettySize=auto;html=1;" edge="1" parent="1" source="uBxwm77QS9etpodQzqcS-2" target="uBxwm77QS9etpodQzqcS-22">
          <mxGeometry relative="1" as="geometry" />
        </mxCell>
        <mxCell id="uBxwm77QS9etpodQzqcS-2" value="Read n " style="shape=parallelogram;perimeter=parallelogramPerimeter;whiteSpace=wrap;html=1;fixedSize=1;" vertex="1" parent="1">
          <mxGeometry x="330" y="150" width="120" height="60" as="geometry" />
        </mxCell>
        <mxCell id="uBxwm77QS9etpodQzqcS-7" value="" style="edgeStyle=orthogonalEdgeStyle;rounded=0;orthogonalLoop=1;jettySize=auto;html=1;" edge="1" parent="1" source="uBxwm77QS9etpodQzqcS-4">
          <mxGeometry relative="1" as="geometry">
            <mxPoint x="160" y="490" as="targetPoint" />
          </mxGeometry>
        </mxCell>
        <mxCell id="uBxwm77QS9etpodQzqcS-10" value="&lt;div&gt;FALSE&lt;/div&gt;" style="edgeLabel;html=1;align=center;verticalAlign=middle;resizable=0;points=[];" vertex="1" connectable="0" parent="uBxwm77QS9etpodQzqcS-7">
          <mxGeometry x="-0.071" y="-1" relative="1" as="geometry">
            <mxPoint as="offset" />
          </mxGeometry>
        </mxCell>
        <mxCell id="uBxwm77QS9etpodQzqcS-28" value="" style="edgeStyle=orthogonalEdgeStyle;rounded=0;orthogonalLoop=1;jettySize=auto;html=1;" edge="1" parent="1" source="uBxwm77QS9etpodQzqcS-4" target="uBxwm77QS9etpodQzqcS-27">
          <mxGeometry relative="1" as="geometry" />
        </mxCell>
        <mxCell id="uBxwm77QS9etpodQzqcS-39" value="TRUE" style="edgeLabel;html=1;align=center;verticalAlign=middle;resizable=0;points=[];" vertex="1" connectable="0" parent="uBxwm77QS9etpodQzqcS-28">
          <mxGeometry x="-0.071" y="2" relative="1" as="geometry">
            <mxPoint as="offset" />
          </mxGeometry>
        </mxCell>
        <mxCell id="uBxwm77QS9etpodQzqcS-4" value="n &amp;gt; 0" style="rhombus;whiteSpace=wrap;html=1;" vertex="1" parent="1">
          <mxGeometry x="315" y="450" width="150" height="80" as="geometry" />
        </mxCell>
        <mxCell id="uBxwm77QS9etpodQzqcS-9" value="" style="edgeStyle=orthogonalEdgeStyle;rounded=0;orthogonalLoop=1;jettySize=auto;html=1;" edge="1" parent="1" target="uBxwm77QS9etpodQzqcS-8">
          <mxGeometry relative="1" as="geometry">
            <mxPoint x="160" y="490" as="sourcePoint" />
          </mxGeometry>
        </mxCell>
        <mxCell id="uBxwm77QS9etpodQzqcS-12" value="" style="edgeStyle=orthogonalEdgeStyle;rounded=0;orthogonalLoop=1;jettySize=auto;html=1;" edge="1" parent="1" source="uBxwm77QS9etpodQzqcS-8" target="uBxwm77QS9etpodQzqcS-11">
          <mxGeometry relative="1" as="geometry" />
        </mxCell>
        <mxCell id="uBxwm77QS9etpodQzqcS-8" value="write &quot;errore&quot;" style="shape=parallelogram;perimeter=parallelogramPerimeter;whiteSpace=wrap;html=1;fixedSize=1;sketch=0;pointerEvents=1;resizable=0;" vertex="1" parent="1">
          <mxGeometry x="100" y="550" width="120" height="60" as="geometry" />
        </mxCell>
        <mxCell id="uBxwm77QS9etpodQzqcS-11" value="END" style="ellipse;whiteSpace=wrap;html=1;sketch=0;pointerEvents=1;resizable=0;" vertex="1" parent="1">
          <mxGeometry x="120" y="680" width="80" height="80" as="geometry" />
        </mxCell>
        <mxCell id="uBxwm77QS9etpodQzqcS-26" value="" style="edgeStyle=orthogonalEdgeStyle;rounded=0;orthogonalLoop=1;jettySize=auto;html=1;" edge="1" parent="1" source="uBxwm77QS9etpodQzqcS-22" target="uBxwm77QS9etpodQzqcS-25">
          <mxGeometry relative="1" as="geometry" />
        </mxCell>
        <mxCell id="uBxwm77QS9etpodQzqcS-22" value="sum = 0" style="whiteSpace=wrap;html=1;" vertex="1" parent="1">
          <mxGeometry x="330" y="250" width="120" height="60" as="geometry" />
        </mxCell>
        <mxCell id="uBxwm77QS9etpodQzqcS-25" value="count = 1" style="whiteSpace=wrap;html=1;" vertex="1" parent="1">
          <mxGeometry x="330" y="350" width="120" height="60" as="geometry" />
        </mxCell>
        <mxCell id="uBxwm77QS9etpodQzqcS-33" value="" style="edgeStyle=orthogonalEdgeStyle;rounded=0;orthogonalLoop=1;jettySize=auto;html=1;" edge="1" parent="1" source="uBxwm77QS9etpodQzqcS-27">
          <mxGeometry relative="1" as="geometry">
            <mxPoint x="620" y="550" as="targetPoint" />
          </mxGeometry>
        </mxCell>
        <mxCell id="uBxwm77QS9etpodQzqcS-27" value="" style="shape=waypoint;sketch=0;size=6;pointerEvents=1;points=[];fillColor=default;resizable=0;rotatable=0;perimeter=centerPerimeter;snapToPoint=1;" vertex="1" parent="1">
          <mxGeometry x="610" y="480" width="20" height="20" as="geometry" />
        </mxCell>
        <mxCell id="uBxwm77QS9etpodQzqcS-41" value="" style="edgeStyle=orthogonalEdgeStyle;rounded=0;orthogonalLoop=1;jettySize=auto;html=1;" edge="1" parent="1" source="uBxwm77QS9etpodQzqcS-38" target="uBxwm77QS9etpodQzqcS-40">
          <mxGeometry relative="1" as="geometry" />
        </mxCell>
        <mxCell id="uBxwm77QS9etpodQzqcS-46" value="FALSE" style="edgeLabel;html=1;align=center;verticalAlign=middle;resizable=0;points=[];" vertex="1" connectable="0" parent="uBxwm77QS9etpodQzqcS-41">
          <mxGeometry x="-0.1789" y="-2" relative="1" as="geometry">
            <mxPoint as="offset" />
          </mxGeometry>
        </mxCell>
        <mxCell id="uBxwm77QS9etpodQzqcS-43" value="" style="edgeStyle=orthogonalEdgeStyle;rounded=0;orthogonalLoop=1;jettySize=auto;html=1;" edge="1" parent="1" source="uBxwm77QS9etpodQzqcS-38" target="uBxwm77QS9etpodQzqcS-42">
          <mxGeometry relative="1" as="geometry" />
        </mxCell>
        <mxCell id="uBxwm77QS9etpodQzqcS-44" value="TRUE" style="edgeLabel;html=1;align=center;verticalAlign=middle;resizable=0;points=[];" vertex="1" connectable="0" parent="uBxwm77QS9etpodQzqcS-43">
          <mxGeometry x="-0.0261" y="1" relative="1" as="geometry">
            <mxPoint as="offset" />
          </mxGeometry>
        </mxCell>
        <mxCell id="uBxwm77QS9etpodQzqcS-38" value="count &amp;lt;= n " style="rhombus;whiteSpace=wrap;html=1;" vertex="1" parent="1">
          <mxGeometry x="555" y="550" width="130" height="80" as="geometry" />
        </mxCell>
        <mxCell id="uBxwm77QS9etpodQzqcS-48" value="" style="edgeStyle=orthogonalEdgeStyle;rounded=0;orthogonalLoop=1;jettySize=auto;html=1;" edge="1" parent="1" source="uBxwm77QS9etpodQzqcS-40" target="uBxwm77QS9etpodQzqcS-47">
          <mxGeometry relative="1" as="geometry" />
        </mxCell>
        <mxCell id="uBxwm77QS9etpodQzqcS-40" value="" style="shape=waypoint;sketch=0;size=6;pointerEvents=1;points=[];fillColor=default;resizable=0;rotatable=0;perimeter=centerPerimeter;snapToPoint=1;" vertex="1" parent="1">
          <mxGeometry x="450" y="580" width="20" height="20" as="geometry" />
        </mxCell>
        <mxCell id="uBxwm77QS9etpodQzqcS-52" value="" style="edgeStyle=orthogonalEdgeStyle;rounded=0;orthogonalLoop=1;jettySize=auto;html=1;" edge="1" parent="1" source="uBxwm77QS9etpodQzqcS-42" target="uBxwm77QS9etpodQzqcS-51">
          <mxGeometry relative="1" as="geometry" />
        </mxCell>
        <mxCell id="uBxwm77QS9etpodQzqcS-42" value="" style="shape=waypoint;sketch=0;size=6;pointerEvents=1;points=[];fillColor=default;resizable=0;rotatable=0;perimeter=centerPerimeter;snapToPoint=1;" vertex="1" parent="1">
          <mxGeometry x="790" y="580" width="20" height="20" as="geometry" />
        </mxCell>
        <mxCell id="uBxwm77QS9etpodQzqcS-62" value="" style="edgeStyle=orthogonalEdgeStyle;rounded=0;orthogonalLoop=1;jettySize=auto;html=1;" edge="1" parent="1" source="uBxwm77QS9etpodQzqcS-47">
          <mxGeometry relative="1" as="geometry">
            <mxPoint x="200" y="720" as="targetPoint" />
          </mxGeometry>
        </mxCell>
        <mxCell id="uBxwm77QS9etpodQzqcS-47" value="write &quot;errore&quot;" style="shape=parallelogram;perimeter=parallelogramPerimeter;whiteSpace=wrap;html=1;fixedSize=1;sketch=0;pointerEvents=1;resizable=0;" vertex="1" parent="1">
          <mxGeometry x="400" y="690" width="120" height="60" as="geometry" />
        </mxCell>
        <mxCell id="uBxwm77QS9etpodQzqcS-54" value="" style="edgeStyle=orthogonalEdgeStyle;rounded=0;orthogonalLoop=1;jettySize=auto;html=1;" edge="1" parent="1" source="uBxwm77QS9etpodQzqcS-51" target="uBxwm77QS9etpodQzqcS-53">
          <mxGeometry relative="1" as="geometry" />
        </mxCell>
        <mxCell id="uBxwm77QS9etpodQzqcS-51" value="sum = sum + (count * count)" style="whiteSpace=wrap;html=1;sketch=0;pointerEvents=1;resizable=0;" vertex="1" parent="1">
          <mxGeometry x="740" y="660" width="120" height="60" as="geometry" />
        </mxCell>
        <mxCell id="uBxwm77QS9etpodQzqcS-56" value="" style="edgeStyle=orthogonalEdgeStyle;rounded=0;orthogonalLoop=1;jettySize=auto;html=1;" edge="1" parent="1" source="uBxwm77QS9etpodQzqcS-53" target="uBxwm77QS9etpodQzqcS-55">
          <mxGeometry relative="1" as="geometry" />
        </mxCell>
        <mxCell id="uBxwm77QS9etpodQzqcS-53" value="count += 1" style="whiteSpace=wrap;html=1;sketch=0;pointerEvents=1;resizable=0;" vertex="1" parent="1">
          <mxGeometry x="740" y="800" width="120" height="60" as="geometry" />
        </mxCell>
        <mxCell id="uBxwm77QS9etpodQzqcS-58" value="" style="edgeStyle=orthogonalEdgeStyle;rounded=0;orthogonalLoop=1;jettySize=auto;html=1;" edge="1" parent="1" source="uBxwm77QS9etpodQzqcS-55">
          <mxGeometry relative="1" as="geometry">
            <mxPoint x="620" y="630" as="targetPoint" />
          </mxGeometry>
        </mxCell>
        <mxCell id="uBxwm77QS9etpodQzqcS-55" value="" style="shape=waypoint;sketch=0;size=6;pointerEvents=1;points=[];fillColor=default;resizable=0;rotatable=0;perimeter=centerPerimeter;snapToPoint=1;" vertex="1" parent="1">
          <mxGeometry x="610" y="820" width="20" height="20" as="geometry" />
        </mxCell>
      </root>
    </mxGraphModel>
  </diagram>
</mxfile>
